<svg width="160" height="160" viewBox="0 0 160 160" fill="none" xmlns="http://www.w3.org/2000/svg">
<g clip-path="url(#clip0_719_37)">
<mask id="path-1-outside-1_719_37" maskUnits="userSpaceOnUse" x="52" y="50" width="31" height="48" fill="black">
<rect fill="white" x="52" y="50" width="31" height="48"/>
<path d="M67.68 97C64.88 97 62.44 96.4 60.36 95.2C58.28 93.9733 56.6533 92.2667 55.48 90.08C54.3333 87.8933 53.76 85.3467 53.76 82.44V65.72C53.76 62.84 54.3333 60.3067 55.48 58.12C56.6533 55.9067 58.28 54.2 60.36 53C62.44 51.7733 64.88 51.16 67.68 51.16C71.8933 51.16 75.2533 52.4933 77.76 55.16C80.2933 57.8267 81.56 61.3467 81.56 65.72V82.44C81.56 86.7867 80.2933 90.3067 77.76 93C75.2533 95.6667 71.8933 97 67.68 97ZM67.68 88.4C69.3333 88.4 70.6267 87.9067 71.56 86.92C72.4933 85.9333 72.96 84.64 72.96 83.04V65.12C72.96 63.52 72.4933 62.2267 71.56 61.24C70.6267 60.2533 69.3333 59.76 67.68 59.76C66.0267 59.76 64.72 60.2533 63.76 61.24C62.8267 62.2267 62.36 63.52 62.36 65.12V83.04C62.36 84.64 62.8267 85.9333 63.76 86.92C64.72 87.9067 66.0267 88.4 67.68 88.4Z"/>
</mask>
<path d="M67.68 97C64.88 97 62.44 96.4 60.36 95.2C58.28 93.9733 56.6533 92.2667 55.48 90.08C54.3333 87.8933 53.76 85.3467 53.76 82.44V65.72C53.76 62.84 54.3333 60.3067 55.48 58.12C56.6533 55.9067 58.28 54.2 60.36 53C62.44 51.7733 64.88 51.16 67.68 51.16C71.8933 51.16 75.2533 52.4933 77.76 55.16C80.2933 57.8267 81.56 61.3467 81.56 65.72V82.44C81.56 86.7867 80.2933 90.3067 77.76 93C75.2533 95.6667 71.8933 97 67.68 97ZM67.68 88.4C69.3333 88.4 70.6267 87.9067 71.56 86.92C72.4933 85.9333 72.96 84.64 72.96 83.04V65.12C72.96 63.52 72.4933 62.2267 71.56 61.24C70.6267 60.2533 69.3333 59.76 67.68 59.76C66.0267 59.76 64.72 60.2533 63.76 61.24C62.8267 62.2267 62.36 63.52 62.36 65.12V83.04C62.36 84.64 62.8267 85.9333 63.76 86.92C64.72 87.9067 66.0267 88.4 67.68 88.4Z" fill="#1C1917"/>
<path d="M60.36 95.2L59.852 96.0614L59.8603 96.0662L60.36 95.2ZM55.48 90.08L54.5943 90.5444L54.5988 90.5528L55.48 90.08ZM55.48 58.12L54.5965 57.6516L54.5944 57.6556L55.48 58.12ZM60.36 53L60.8597 53.8662L60.868 53.8614L60.36 53ZM77.76 55.16L77.0314 55.8449L77.035 55.8487L77.76 55.16ZM77.76 93L77.0316 92.3149L77.0314 92.3151L77.76 93ZM71.56 86.92L72.2865 87.6072L72.2865 87.6072L71.56 86.92ZM71.56 61.24L72.2865 60.5528L72.2865 60.5528L71.56 61.24ZM63.76 61.24L63.0432 60.5426L63.0335 60.5528L63.76 61.24ZM63.76 86.92L63.0335 87.6073L63.0433 87.6174L63.76 86.92ZM67.68 97V96C65.026 96 62.7642 95.4325 60.8597 94.3338L60.36 95.2L59.8603 96.0662C62.1158 97.3675 64.734 98 67.68 98V97ZM60.36 95.2L60.868 94.3386C58.9501 93.2076 57.4505 91.6373 56.3612 89.6072L55.48 90.08L54.5988 90.5528C55.8562 92.896 57.6099 94.7391 59.852 96.0614L60.36 95.2ZM55.48 90.08L56.3656 89.6156C55.3063 87.5956 54.76 85.2135 54.76 82.44H53.76H52.76C52.76 85.4798 53.3603 88.1911 54.5944 90.5444L55.48 90.08ZM53.76 82.44H54.76V65.72H53.76H52.76V82.44H53.76ZM53.76 65.72H54.76C54.76 62.9748 55.3057 60.6057 56.3656 58.5844L55.48 58.12L54.5944 57.6556C53.361 60.0076 52.76 62.7052 52.76 65.72H53.76ZM55.48 58.12L56.3635 58.5884C57.4528 56.5335 58.9497 54.9681 60.8597 53.8662L60.36 53L59.8603 52.1338C57.6103 53.4319 55.8538 55.2798 54.5965 57.6516L55.48 58.12ZM60.36 53L60.868 53.8614C62.771 52.7391 65.0298 52.16 67.68 52.16V51.16V50.16C64.7302 50.16 62.109 50.8076 59.852 52.1386L60.36 53ZM67.68 51.16V52.16C71.6631 52.16 74.7429 53.4103 77.0314 55.8449L77.76 55.16L78.4886 54.4751C75.7638 51.5763 72.1236 50.16 67.68 50.16V51.16ZM77.76 55.16L77.035 55.8487C79.3592 58.2953 80.56 61.5514 80.56 65.72H81.56H82.56C82.56 61.1419 81.2275 57.3581 78.485 54.4712L77.76 55.16ZM81.56 65.72H80.56V82.44H81.56H82.56V65.72H81.56ZM81.56 82.44H80.56C80.56 86.5797 79.3603 89.8391 77.0316 92.3149L77.76 93L78.4884 93.6851C81.2264 90.7743 82.56 86.9936 82.56 82.44H81.56ZM77.76 93L77.0314 92.3151C74.7429 94.7497 71.6631 96 67.68 96V97V98C72.1236 98 75.7638 96.5837 78.4886 93.6849L77.76 93ZM67.68 88.4V89.4C69.544 89.4 71.1243 88.8358 72.2865 87.6072L71.56 86.92L70.8335 86.2328C70.1291 86.9775 69.1227 87.4 67.68 87.4V88.4ZM71.56 86.92L72.2865 87.6072C73.4262 86.4023 73.96 84.847 73.96 83.04H72.96H71.96C71.96 84.433 71.5604 85.4643 70.8335 86.2328L71.56 86.92ZM72.96 83.04H73.96V65.12H72.96H71.96V83.04H72.96ZM72.96 65.12H73.96C73.96 63.313 73.4262 61.7577 72.2865 60.5528L71.56 61.24L70.8335 61.9272C71.5604 62.6957 71.96 63.727 71.96 65.12H72.96ZM71.56 61.24L72.2865 60.5528C71.1243 59.3242 69.544 58.76 67.68 58.76V59.76V60.76C69.1227 60.76 70.1291 61.1825 70.8335 61.9272L71.56 61.24ZM67.68 59.76V58.76C65.815 58.76 64.2287 59.3243 63.0433 60.5426L63.76 61.24L64.4767 61.9374C65.2113 61.1823 66.2383 60.76 67.68 60.76V59.76ZM63.76 61.24L63.0335 60.5528C61.8938 61.7577 61.36 63.313 61.36 65.12H62.36H63.36C63.36 63.727 63.7596 62.6957 64.4865 61.9272L63.76 61.24ZM62.36 65.12H61.36V83.04H62.36H63.36V65.12H62.36ZM62.36 83.04H61.36C61.36 84.847 61.8938 86.4023 63.0335 87.6072L63.76 86.92L64.4865 86.2328C63.7596 85.4643 63.36 84.433 63.36 83.04H62.36ZM63.76 86.92L63.0433 87.6174C64.2287 88.8357 65.815 89.4 67.68 89.4V88.4V87.4C66.2383 87.4 65.2113 86.9777 64.4767 86.2226L63.76 86.92Z" fill="#FA7D29" mask="url(#path-1-outside-1_719_37)"/>
<mask id="path-3-outside-2_719_37" maskUnits="userSpaceOnUse" x="78" y="51" width="36" height="46" fill="black">
<rect fill="white" x="78" y="51" width="36" height="46"/>
<path d="M80.32 96L92 74.08L80.32 52.2H89.24L98.16 68.92H94.32L103.24 52.2H112.16L100.52 74.08L112.16 96H103.24L94.32 79.24H98.16L89.24 96H80.32Z"/>
</mask>
<path d="M80.32 96L92 74.08L80.32 52.2H89.24L98.16 68.92H94.32L103.24 52.2H112.16L100.52 74.08L112.16 96H103.24L94.32 79.24H98.16L89.24 96H80.32Z" fill="#1C1917"/>
<path d="M80.32 96L79.4375 95.5297L78.654 97H80.32V96ZM92 74.08L92.8825 74.5503L93.1333 74.0796L92.8822 73.6091L92 74.08ZM80.32 52.2V51.2H78.6526L79.4378 52.6709L80.32 52.2ZM89.24 52.2L90.1223 51.7293L89.8399 51.2H89.24V52.2ZM98.16 68.92V69.92H99.8269L99.0423 68.4493L98.16 68.92ZM94.32 68.92L93.4377 68.4493L92.6531 69.92H94.32V68.92ZM103.24 52.2V51.2H102.64L102.358 51.7293L103.24 52.2ZM112.16 52.2L113.043 52.6697L113.825 51.2H112.16V52.2ZM100.52 74.08L99.6372 73.6103L99.3875 74.0796L99.6368 74.549L100.52 74.08ZM112.16 96V97H113.823L113.043 95.531L112.16 96ZM103.24 96L102.357 96.4698L102.639 97H103.24V96ZM94.32 79.24V78.24H92.655L93.4372 79.7098L94.32 79.24ZM98.16 79.24L99.0428 79.7098L99.825 78.24H98.16V79.24ZM89.24 96V97H89.8406L90.1228 96.4698L89.24 96ZM80.32 96L81.2025 96.4703L92.8825 74.5503L92 74.08L91.1175 73.6097L79.4375 95.5297L80.32 96ZM92 74.08L92.8822 73.6091L81.2022 51.7291L80.32 52.2L79.4378 52.6709L91.1178 74.5509L92 74.08ZM80.32 52.2V53.2H89.24V52.2V51.2H80.32V52.2ZM89.24 52.2L88.3577 52.6707L97.2777 69.3907L98.16 68.92L99.0423 68.4493L90.1223 51.7293L89.24 52.2ZM98.16 68.92V67.92H94.32V68.92V69.92H98.16V68.92ZM94.32 68.92L95.2023 69.3907L104.122 52.6707L103.24 52.2L102.358 51.7293L93.4377 68.4493L94.32 68.92ZM103.24 52.2V53.2H112.16V52.2V51.2H103.24V52.2ZM112.16 52.2L111.277 51.7303L99.6372 73.6103L100.52 74.08L101.403 74.5497L113.043 52.6697L112.16 52.2ZM100.52 74.08L99.6368 74.549L111.277 96.469L112.16 96L113.043 95.531L101.403 73.611L100.52 74.08ZM112.16 96V95H103.24V96V97H112.16V96ZM103.24 96L104.123 95.5302L95.2028 78.7702L94.32 79.24L93.4372 79.7098L102.357 96.4698L103.24 96ZM94.32 79.24V80.24H98.16V79.24V78.24H94.32V79.24ZM98.16 79.24L97.2772 78.7702L88.3572 95.5302L89.24 96L90.1228 96.4698L99.0428 79.7098L98.16 79.24ZM89.24 96V95H80.32V96V97H89.24V96Z" fill="#FA7D29" mask="url(#path-3-outside-2_719_37)"/>
<mask id="path-5-outside-3_719_37" maskUnits="userSpaceOnUse" x="111" y="50" width="32" height="48" fill="black">
<rect fill="white" x="111" y="50" width="32" height="48"/>
<path d="M124.12 97C120.387 97 117.52 95.88 115.52 93.64C113.547 91.4 112.56 88.56 112.56 85.12C112.56 83.0933 112.88 81.3867 113.52 80C114.187 78.6133 115.04 77.4533 116.08 76.52C117.147 75.5867 118.307 74.8133 119.56 74.2C121 73.4533 122.48 72.8533 124 72.4C125.52 71.92 126.933 71.44 128.24 70.96C129.547 70.4533 130.6 69.8267 131.4 69.08C132.2 68.3067 132.6 67.28 132.6 66V65.12C132.6 63.52 132.12 62.2267 131.16 61.24C130.227 60.2533 128.933 59.76 127.28 59.76C125.6 59.76 124.293 60.2533 123.36 61.24C122.453 62.2267 122 63.52 122 65.12V67.12H113.4V65.72C113.4 61.3467 114.653 57.8267 117.16 55.16C119.693 52.4933 123.067 51.16 127.28 51.16C130.08 51.16 132.52 51.7733 134.6 53C136.68 54.2 138.293 55.8933 139.44 58.08C140.613 60.2667 141.2 62.8133 141.2 65.72V96H132.6V89.4L134.08 91.32C133.2 93.16 131.907 94.5733 130.2 95.56C128.493 96.52 126.467 97 124.12 97ZM126.68 89.04C128.333 89.04 129.733 88.56 130.88 87.6C132.027 86.64 132.6 85.12 132.6 83.04V76.36C131.587 77.1067 130.4 77.6533 129.04 78C127.707 78.3467 126.387 78.8 125.08 79.36C123.827 79.8667 122.853 80.4933 122.16 81.24C121.493 81.9867 121.16 82.96 121.16 84.16C121.16 85.4933 121.627 86.64 122.56 87.6C123.52 88.56 124.893 89.04 126.68 89.04Z"/>
</mask>
<path d="M124.12 97C120.387 97 117.52 95.88 115.52 93.64C113.547 91.4 112.56 88.56 112.56 85.12C112.56 83.0933 112.88 81.3867 113.52 80C114.187 78.6133 115.04 77.4533 116.08 76.52C117.147 75.5867 118.307 74.8133 119.56 74.2C121 73.4533 122.48 72.8533 124 72.4C125.52 71.92 126.933 71.44 128.24 70.96C129.547 70.4533 130.6 69.8267 131.4 69.08C132.2 68.3067 132.6 67.28 132.6 66V65.12C132.6 63.52 132.12 62.2267 131.16 61.24C130.227 60.2533 128.933 59.76 127.28 59.76C125.6 59.76 124.293 60.2533 123.36 61.24C122.453 62.2267 122 63.52 122 65.12V67.12H113.4V65.72C113.4 61.3467 114.653 57.8267 117.16 55.16C119.693 52.4933 123.067 51.16 127.28 51.16C130.08 51.16 132.52 51.7733 134.6 53C136.68 54.2 138.293 55.8933 139.44 58.08C140.613 60.2667 141.2 62.8133 141.2 65.72V96H132.6V89.4L134.08 91.32C133.2 93.16 131.907 94.5733 130.2 95.56C128.493 96.52 126.467 97 124.12 97ZM126.68 89.04C128.333 89.04 129.733 88.56 130.88 87.6C132.027 86.64 132.6 85.12 132.6 83.04V76.36C131.587 77.1067 130.4 77.6533 129.04 78C127.707 78.3467 126.387 78.8 125.08 79.36C123.827 79.8667 122.853 80.4933 122.16 81.24C121.493 81.9867 121.16 82.96 121.16 84.16C121.16 85.4933 121.627 86.64 122.56 87.6C123.52 88.56 124.893 89.04 126.68 89.04Z" fill="#1C1917"/>
<path d="M115.52 93.64L114.77 94.301L114.774 94.306L115.52 93.64ZM113.52 80L112.619 79.5667L112.615 79.5738L112.612 79.5809L113.52 80ZM116.08 76.52L115.421 75.7674L115.412 75.7758L116.08 76.52ZM119.56 74.2L120 75.0982L120.01 75.0931L120.02 75.0878L119.56 74.2ZM124 72.4L124.286 73.3583L124.293 73.356L124.301 73.3536L124 72.4ZM128.24 70.96L128.585 71.8987L128.593 71.8956L128.602 71.8924L128.24 70.96ZM131.4 69.08L132.082 69.8111L132.089 69.8051L132.095 69.799L131.4 69.08ZM131.16 61.24L130.433 61.9273L130.443 61.9374L131.16 61.24ZM123.36 61.24L122.634 60.5528L122.629 60.5581L122.624 60.5634L123.36 61.24ZM122 67.12V68.12H123V67.12H122ZM113.4 67.12H112.4V68.12H113.4V67.12ZM117.16 55.16L116.435 54.4712L116.431 54.4751L117.16 55.16ZM134.6 53L134.092 53.8614L134.1 53.8662L134.6 53ZM139.44 58.08L138.554 58.5444L138.559 58.5528L139.44 58.08ZM141.2 96V97H142.2V96H141.2ZM132.6 96H131.6V97H132.6V96ZM132.6 89.4L133.392 88.7895L131.6 86.4647V89.4H132.6ZM134.08 91.32L134.982 91.7515L135.247 91.1966L134.872 90.7095L134.08 91.32ZM130.2 95.56L130.69 96.4316L130.701 96.4257L130.2 95.56ZM130.88 87.6L131.522 88.3668L130.88 87.6ZM132.6 76.36H133.6V74.381L132.007 75.5549L132.6 76.36ZM129.04 78L128.793 77.031L128.788 77.0322L129.04 78ZM125.08 79.36L125.455 80.2871L125.464 80.2832L125.474 80.2791L125.08 79.36ZM122.16 81.24L121.427 80.5595L121.421 80.5667L121.414 80.574L122.16 81.24ZM122.56 87.6L121.843 88.2971L121.853 88.3071L122.56 87.6ZM124.12 97V96C120.597 96 118.032 94.9515 116.266 92.974L115.52 93.64L114.774 94.306C117.008 96.8085 120.176 98 124.12 98V97ZM115.52 93.64L116.27 92.979C114.482 90.9492 113.56 88.356 113.56 85.12H112.56H111.56C111.56 88.764 112.611 91.8508 114.77 94.301L115.52 93.64ZM112.56 85.12H113.56C113.56 83.193 113.865 81.6388 114.428 80.4191L113.52 80L112.612 79.5809C111.895 81.1345 111.56 82.9937 111.56 85.12H112.56ZM113.52 80L114.421 80.4333C115.037 79.1526 115.815 78.1017 116.748 77.2642L116.08 76.52L115.412 75.7758C114.265 76.8049 113.336 78.0741 112.619 79.5667L113.52 80ZM116.08 76.52L116.739 77.2726C117.74 76.3963 118.827 75.6722 120 75.0982L119.56 74.2L119.12 73.3018C117.787 73.9544 116.553 74.777 115.421 75.7674L116.08 76.52ZM119.56 74.2L120.02 75.0878C121.406 74.3694 122.827 73.7932 124.286 73.3583L124 72.4L123.714 71.4417C122.133 71.9134 120.594 72.5373 119.1 73.3122L119.56 74.2ZM124 72.4L124.301 73.3536C125.834 72.8696 127.262 72.3847 128.585 71.8987L128.24 70.96L127.895 70.0213C126.605 70.4953 125.206 70.9704 123.699 71.4464L124 72.4ZM128.24 70.96L128.602 71.8924C129.995 71.352 131.167 70.6653 132.082 69.8111L131.4 69.08L130.718 68.3489C130.033 68.9881 129.098 69.5547 127.878 70.0276L128.24 70.96ZM131.4 69.08L132.095 69.799C133.12 68.8084 133.6 67.5066 133.6 66H132.6H131.6C131.6 67.0534 131.28 67.8049 130.705 68.361L131.4 69.08ZM132.6 66H133.6V65.12H132.6H131.6V66H132.6ZM132.6 65.12H133.6C133.6 63.305 133.048 61.7462 131.877 60.5426L131.16 61.24L130.443 61.9374C131.192 62.7071 131.6 63.735 131.6 65.12H132.6ZM131.16 61.24L131.886 60.5528C130.724 59.3242 129.144 58.76 127.28 58.76V59.76V60.76C128.723 60.76 129.729 61.1825 130.434 61.9272L131.16 61.24ZM127.28 59.76V58.76C125.395 58.76 123.799 59.321 122.634 60.5528L123.36 61.24L124.086 61.9272C124.788 61.1857 125.805 60.76 127.28 60.76V59.76ZM123.36 61.24L122.624 60.5634C121.516 61.7693 121 63.3209 121 65.12H122H123C123 63.7191 123.391 62.6841 124.096 61.9166L123.36 61.24ZM122 65.12H121V67.12H122H123V65.12H122ZM122 67.12V66.12H113.4V67.12V68.12H122V67.12ZM113.4 67.12H114.4V65.72H113.4H112.4V67.12H113.4ZM113.4 65.72H114.4C114.4 61.5485 115.589 58.291 117.889 55.8449L117.16 55.16L116.431 54.4751C113.717 57.3623 112.4 61.1448 112.4 65.72H113.4ZM117.16 55.16L117.885 55.8487C120.201 53.4104 123.297 52.16 127.28 52.16V51.16V50.16C122.836 50.16 119.185 51.5763 116.435 54.4712L117.16 55.16ZM127.28 51.16V52.16C129.93 52.16 132.189 52.7391 134.092 53.8614L134.6 53L135.108 52.1386C132.851 50.8076 130.23 50.16 127.28 50.16V51.16ZM134.6 53L134.1 53.8662C136.011 54.9687 137.493 56.5205 138.554 58.5444L139.44 58.08L140.326 57.6156C139.094 55.2661 137.349 53.4313 135.1 52.1338L134.6 53ZM139.44 58.08L138.559 58.5528C139.642 60.571 140.2 62.95 140.2 65.72H141.2H142.2C142.2 62.6767 141.585 59.9623 140.321 57.6072L139.44 58.08ZM141.2 65.72H140.2V96H141.2H142.2V65.72H141.2ZM141.2 96V95H132.6V96V97H141.2V96ZM132.6 96H133.6V89.4H132.6H131.6V96H132.6ZM132.6 89.4L131.808 90.0105L133.288 91.9305L134.08 91.32L134.872 90.7095L133.392 88.7895L132.6 89.4ZM134.08 91.32L133.178 90.8885C132.382 92.5533 131.225 93.8122 129.699 94.6943L130.2 95.56L130.701 96.4257C132.588 95.3345 134.018 93.7667 134.982 91.7515L134.08 91.32ZM130.2 95.56L129.71 94.6884C128.18 95.549 126.329 96 124.12 96V97V98C126.604 98 128.807 97.491 130.69 96.4316L130.2 95.56ZM126.68 89.04V90.04C128.542 90.04 130.176 89.4936 131.522 88.3668L130.88 87.6L130.238 86.8332C129.291 87.6264 128.125 88.04 126.68 88.04V89.04ZM130.88 87.6L131.522 88.3668C132.974 87.1507 133.6 85.2948 133.6 83.04H132.6H131.6C131.6 84.9452 131.079 86.1293 130.238 86.8332L130.88 87.6ZM132.6 83.04H133.6V76.36H132.6H131.6V83.04H132.6ZM132.6 76.36L132.007 75.5549C131.109 76.2168 130.042 76.7125 128.793 77.031L129.04 78L129.287 78.969C130.758 78.5942 132.065 77.9965 133.193 77.1651L132.6 76.36ZM129.04 78L128.788 77.0322C127.405 77.3919 126.037 77.8617 124.686 78.4409L125.08 79.36L125.474 80.2791C126.736 79.7383 128.008 79.3015 129.292 78.9678L129.04 78ZM125.08 79.36L124.705 78.4329C123.358 78.9774 122.247 79.6763 121.427 80.5595L122.16 81.24L122.893 81.9205C123.459 81.3104 124.295 80.7559 125.455 80.2871L125.08 79.36ZM122.16 81.24L121.414 80.574C120.552 81.5389 120.16 82.7657 120.16 84.16H121.16H122.16C122.16 83.1543 122.434 82.4344 122.906 81.906L122.16 81.24ZM121.16 84.16H120.16C120.16 85.7549 120.729 87.1513 121.843 88.2971L122.56 87.6L123.277 86.9029C122.524 86.1287 122.16 85.2318 122.16 84.16H121.16ZM122.56 87.6L121.853 88.3071C123.054 89.5083 124.715 90.04 126.68 90.04V89.04V88.04C125.072 88.04 123.986 87.6117 123.267 86.8929L122.56 87.6Z" fill="#FA7D29" mask="url(#path-5-outside-3_719_37)"/>
<g filter="url(#filter0_d_719_37)">
<mask id="path-7-outside-4_719_37" maskUnits="userSpaceOnUse" x="21" y="99" width="118" height="30" fill="black">
<rect fill="white" x="21" y="99" width="118" height="30"/>
<path d="M29.2753 127.48C27.9153 127.48 26.722 127.187 25.6953 126.6C24.6686 126.013 23.862 125.193 23.2753 124.14C22.6886 123.073 22.3953 121.833 22.3953 120.42V111.84C22.3953 110.453 22.6886 109.233 23.2753 108.18C23.862 107.113 24.6686 106.287 25.6953 105.7C26.722 105.1 27.9153 104.8 29.2753 104.8C31.3153 104.8 32.962 105.447 34.2153 106.74C35.4686 108.033 36.0953 109.733 36.0953 111.84V116.58H24.7153V113.78H33.1953V111.74C33.1953 110.527 32.842 109.553 32.1353 108.82C31.442 108.073 30.4886 107.7 29.2753 107.7C28.062 107.7 27.0953 108.073 26.3753 108.82C25.6553 109.553 25.2953 110.527 25.2953 111.74V120.52C25.2953 121.733 25.6553 122.713 26.3753 123.46C27.0953 124.207 28.062 124.58 29.2753 124.58C30.4886 124.58 31.442 124.207 32.1353 123.46C32.842 122.713 33.1953 121.733 33.1953 120.52V120.02H36.0953V120.42C36.0953 122.527 35.4686 124.233 34.2153 125.54C32.962 126.833 31.3153 127.48 29.2753 127.48ZM44.7841 127L38.5841 105.3H41.6841L46.8841 123.9H46.1841L51.3441 105.3H54.4441L48.3041 127H44.7841ZM63.6894 127.48C62.3294 127.48 61.136 127.187 60.1094 126.6C59.0827 126.013 58.276 125.193 57.6894 124.14C57.1027 123.073 56.8094 121.833 56.8094 120.42V111.84C56.8094 110.453 57.1027 109.233 57.6894 108.18C58.276 107.113 59.0827 106.287 60.1094 105.7C61.136 105.1 62.3294 104.8 63.6894 104.8C65.7294 104.8 67.376 105.447 68.6294 106.74C69.8827 108.033 70.5094 109.733 70.5094 111.84V116.58H59.1294V113.78H67.6094V111.74C67.6094 110.527 67.256 109.553 66.5494 108.82C65.856 108.073 64.9027 107.7 63.6894 107.7C62.476 107.7 61.5094 108.073 60.7894 108.82C60.0694 109.553 59.7094 110.527 59.7094 111.74V120.52C59.7094 121.733 60.0694 122.713 60.7894 123.46C61.5094 124.207 62.476 124.58 63.6894 124.58C64.9027 124.58 65.856 124.207 66.5494 123.46C67.256 122.713 67.6094 121.733 67.6094 120.52V120.02H70.5094V120.42C70.5094 122.527 69.8827 124.233 68.6294 125.54C67.376 126.833 65.7294 127.48 63.6894 127.48ZM75.4181 127V105.3H78.3181V108.2L77.8181 107.62C78.3248 106.713 78.9981 106.02 79.8381 105.54C80.6781 105.047 81.6581 104.8 82.7781 104.8C84.5915 104.8 86.0515 105.427 87.1581 106.68C88.2648 107.933 88.8181 109.62 88.8181 111.74V127H85.9181V111.74C85.9181 110.527 85.5715 109.553 84.8781 108.82C84.1981 108.073 83.2915 107.7 82.1581 107.7C80.9981 107.7 80.0648 108.073 79.3581 108.82C78.6648 109.553 78.3181 110.527 78.3181 111.74V127H75.4181ZM102.386 127.24C100.32 127.24 98.6596 126.587 97.4063 125.28C96.1663 123.96 95.5463 122.193 95.5463 119.98V108H91.6463V105.26H95.5463V99.8H98.4463V105.26H103.846V108H98.4463V119.98C98.4463 121.3 98.8063 122.36 99.5263 123.16C100.246 123.947 101.2 124.34 102.386 124.34H103.846V127.24H102.386ZM113.768 127.48C112.408 127.48 111.214 127.187 110.188 126.6C109.161 126.013 108.354 125.193 107.768 124.14C107.181 123.073 106.888 121.833 106.888 120.42V111.84C106.888 110.453 107.181 109.233 107.768 108.18C108.354 107.113 109.161 106.287 110.188 105.7C111.214 105.1 112.408 104.8 113.768 104.8C115.808 104.8 117.454 105.447 118.708 106.74C119.961 108.033 120.588 109.733 120.588 111.84V120.42C120.588 122.527 119.961 124.233 118.708 125.54C117.454 126.833 115.808 127.48 113.768 127.48ZM113.768 124.58C114.981 124.58 115.934 124.207 116.628 123.46C117.334 122.713 117.688 121.733 117.688 120.52V111.74C117.688 110.527 117.334 109.553 116.628 108.82C115.934 108.073 114.981 107.7 113.768 107.7C112.554 107.7 111.588 108.073 110.868 108.82C110.148 109.553 109.788 110.527 109.788 111.74V120.52C109.788 121.733 110.148 122.713 110.868 123.46C111.588 124.207 112.554 124.58 113.768 124.58ZM131.453 127.48C129.386 127.48 127.726 126.887 126.473 125.7C125.233 124.5 124.613 122.92 124.613 120.96V120.26H127.513V121.08C127.513 122.133 127.866 122.98 128.573 123.62C129.293 124.26 130.239 124.58 131.413 124.58C132.546 124.58 133.446 124.26 134.112 123.62C134.779 122.98 135.113 122.053 135.113 120.84C135.113 120.053 134.959 119.453 134.653 119.04C134.359 118.613 133.933 118.293 133.372 118.08C132.813 117.867 132.133 117.68 131.333 117.52C130.013 117.24 128.846 116.933 127.833 116.6C126.819 116.253 126.026 115.707 125.452 114.96C124.893 114.213 124.613 113.1 124.613 111.62C124.613 109.407 125.219 107.72 126.433 106.56C127.659 105.387 129.266 104.8 131.253 104.8C133.319 104.8 134.959 105.4 136.173 106.6C137.399 107.787 138.013 109.353 138.013 111.3V111.98H135.113V111.2C135.113 110.133 134.766 109.287 134.073 108.66C133.393 108.02 132.466 107.7 131.293 107.7C130.146 107.7 129.226 108.027 128.533 108.68C127.853 109.32 127.513 110.247 127.513 111.46C127.513 112.247 127.659 112.853 127.952 113.28C128.259 113.693 128.699 114 129.273 114.2C129.846 114.4 130.533 114.587 131.333 114.76C132.639 115.027 133.793 115.333 134.793 115.68C135.793 116.027 136.579 116.58 137.153 117.34C137.726 118.1 138.013 119.227 138.013 120.72C138.013 122.893 137.413 124.567 136.213 125.74C135.026 126.9 133.439 127.48 131.453 127.48Z"/>
</mask>
<path d="M29.2753 127.48C27.9153 127.48 26.722 127.187 25.6953 126.6C24.6686 126.013 23.862 125.193 23.2753 124.14C22.6886 123.073 22.3953 121.833 22.3953 120.42V111.84C22.3953 110.453 22.6886 109.233 23.2753 108.18C23.862 107.113 24.6686 106.287 25.6953 105.7C26.722 105.1 27.9153 104.8 29.2753 104.8C31.3153 104.8 32.962 105.447 34.2153 106.74C35.4686 108.033 36.0953 109.733 36.0953 111.84V116.58H24.7153V113.78H33.1953V111.74C33.1953 110.527 32.842 109.553 32.1353 108.82C31.442 108.073 30.4886 107.7 29.2753 107.7C28.062 107.7 27.0953 108.073 26.3753 108.82C25.6553 109.553 25.2953 110.527 25.2953 111.74V120.52C25.2953 121.733 25.6553 122.713 26.3753 123.46C27.0953 124.207 28.062 124.58 29.2753 124.58C30.4886 124.58 31.442 124.207 32.1353 123.46C32.842 122.713 33.1953 121.733 33.1953 120.52V120.02H36.0953V120.42C36.0953 122.527 35.4686 124.233 34.2153 125.54C32.962 126.833 31.3153 127.48 29.2753 127.48ZM44.7841 127L38.5841 105.3H41.6841L46.8841 123.9H46.1841L51.3441 105.3H54.4441L48.3041 127H44.7841ZM63.6894 127.48C62.3294 127.48 61.136 127.187 60.1094 126.6C59.0827 126.013 58.276 125.193 57.6894 124.14C57.1027 123.073 56.8094 121.833 56.8094 120.42V111.84C56.8094 110.453 57.1027 109.233 57.6894 108.18C58.276 107.113 59.0827 106.287 60.1094 105.7C61.136 105.1 62.3294 104.8 63.6894 104.8C65.7294 104.8 67.376 105.447 68.6294 106.74C69.8827 108.033 70.5094 109.733 70.5094 111.84V116.58H59.1294V113.78H67.6094V111.74C67.6094 110.527 67.256 109.553 66.5494 108.82C65.856 108.073 64.9027 107.7 63.6894 107.7C62.476 107.7 61.5094 108.073 60.7894 108.82C60.0694 109.553 59.7094 110.527 59.7094 111.74V120.52C59.7094 121.733 60.0694 122.713 60.7894 123.46C61.5094 124.207 62.476 124.58 63.6894 124.58C64.9027 124.58 65.856 124.207 66.5494 123.46C67.256 122.713 67.6094 121.733 67.6094 120.52V120.02H70.5094V120.42C70.5094 122.527 69.8827 124.233 68.6294 125.54C67.376 126.833 65.7294 127.48 63.6894 127.48ZM75.4181 127V105.3H78.3181V108.2L77.8181 107.62C78.3248 106.713 78.9981 106.02 79.8381 105.54C80.6781 105.047 81.6581 104.8 82.7781 104.8C84.5915 104.8 86.0515 105.427 87.1581 106.68C88.2648 107.933 88.8181 109.62 88.8181 111.74V127H85.9181V111.74C85.9181 110.527 85.5715 109.553 84.8781 108.82C84.1981 108.073 83.2915 107.7 82.1581 107.7C80.9981 107.7 80.0648 108.073 79.3581 108.82C78.6648 109.553 78.3181 110.527 78.3181 111.74V127H75.4181ZM102.386 127.24C100.32 127.24 98.6596 126.587 97.4063 125.28C96.1663 123.96 95.5463 122.193 95.5463 119.98V108H91.6463V105.26H95.5463V99.8H98.4463V105.26H103.846V108H98.4463V119.98C98.4463 121.3 98.8063 122.36 99.5263 123.16C100.246 123.947 101.2 124.34 102.386 124.34H103.846V127.24H102.386ZM113.768 127.48C112.408 127.48 111.214 127.187 110.188 126.6C109.161 126.013 108.354 125.193 107.768 124.14C107.181 123.073 106.888 121.833 106.888 120.42V111.84C106.888 110.453 107.181 109.233 107.768 108.18C108.354 107.113 109.161 106.287 110.188 105.7C111.214 105.1 112.408 104.8 113.768 104.8C115.808 104.8 117.454 105.447 118.708 106.74C119.961 108.033 120.588 109.733 120.588 111.84V120.42C120.588 122.527 119.961 124.233 118.708 125.54C117.454 126.833 115.808 127.48 113.768 127.48ZM113.768 124.58C114.981 124.58 115.934 124.207 116.628 123.46C117.334 122.713 117.688 121.733 117.688 120.52V111.74C117.688 110.527 117.334 109.553 116.628 108.82C115.934 108.073 114.981 107.7 113.768 107.7C112.554 107.7 111.588 108.073 110.868 108.82C110.148 109.553 109.788 110.527 109.788 111.74V120.52C109.788 121.733 110.148 122.713 110.868 123.46C111.588 124.207 112.554 124.58 113.768 124.58ZM131.453 127.48C129.386 127.48 127.726 126.887 126.473 125.7C125.233 124.5 124.613 122.92 124.613 120.96V120.26H127.513V121.08C127.513 122.133 127.866 122.98 128.573 123.62C129.293 124.26 130.239 124.58 131.413 124.58C132.546 124.58 133.446 124.26 134.112 123.62C134.779 122.98 135.113 122.053 135.113 120.84C135.113 120.053 134.959 119.453 134.653 119.04C134.359 118.613 133.933 118.293 133.372 118.08C132.813 117.867 132.133 117.68 131.333 117.52C130.013 117.24 128.846 116.933 127.833 116.6C126.819 116.253 126.026 115.707 125.452 114.96C124.893 114.213 124.613 113.1 124.613 111.62C124.613 109.407 125.219 107.72 126.433 106.56C127.659 105.387 129.266 104.8 131.253 104.8C133.319 104.8 134.959 105.4 136.173 106.6C137.399 107.787 138.013 109.353 138.013 111.3V111.98H135.113V111.2C135.113 110.133 134.766 109.287 134.073 108.66C133.393 108.02 132.466 107.7 131.293 107.7C130.146 107.7 129.226 108.027 128.533 108.68C127.853 109.32 127.513 110.247 127.513 111.46C127.513 112.247 127.659 112.853 127.952 113.28C128.259 113.693 128.699 114 129.273 114.2C129.846 114.4 130.533 114.587 131.333 114.76C132.639 115.027 133.793 115.333 134.793 115.68C135.793 116.027 136.579 116.58 137.153 117.34C137.726 118.1 138.013 119.227 138.013 120.72C138.013 122.893 137.413 124.567 136.213 125.74C135.026 126.9 133.439 127.48 131.453 127.48Z" fill="#BF2D51" shape-rendering="crispEdges"/>
<path d="M25.6953 126.6L25.2984 127.295L25.2984 127.295L25.6953 126.6ZM23.2753 124.14L22.5743 124.526L22.5764 124.529L23.2753 124.14ZM23.2753 108.18L23.9742 108.569L23.9763 108.566L23.2753 108.18ZM25.6953 105.7L26.0922 106.395L26.099 106.391L25.6953 105.7ZM34.2153 106.74L33.6408 107.297L33.6408 107.297L34.2153 106.74ZM36.0953 116.58V117.38H36.8953V116.58H36.0953ZM24.7153 116.58H23.9153V117.38H24.7153V116.58ZM24.7153 113.78V112.98H23.9153V113.78H24.7153ZM33.1953 113.78V114.58H33.9953V113.78H33.1953ZM32.1353 108.82L31.5491 109.364L31.5541 109.37L31.5593 109.375L32.1353 108.82ZM26.3753 108.82L26.9462 109.38L26.9512 109.375L26.3753 108.82ZM26.3753 123.46L25.7994 124.015L25.7994 124.015L26.3753 123.46ZM32.1353 123.46L31.5543 122.91L31.5491 122.916L32.1353 123.46ZM33.1953 120.02V119.22H32.3953V120.02H33.1953ZM36.0953 120.02H36.8953V119.22H36.0953V120.02ZM34.2153 125.54L34.7898 126.097L34.7927 126.094L34.2153 125.54ZM29.2753 127.48V126.68C28.0334 126.68 26.9809 126.413 26.0922 125.905L25.6953 126.6L25.2984 127.295C26.4631 127.96 27.7973 128.28 29.2753 128.28V127.48ZM25.6953 126.6L26.0922 125.905C25.1948 125.393 24.4914 124.679 23.9742 123.751L23.2753 124.14L22.5764 124.529C23.2326 125.707 24.1425 126.634 25.2984 127.295L25.6953 126.6ZM23.2753 124.14L23.9763 123.754C23.4644 122.824 23.1953 121.72 23.1953 120.42H22.3953H21.5953C21.5953 121.946 21.9129 123.323 22.5743 124.526L23.2753 124.14ZM22.3953 120.42H23.1953V111.84H22.3953H21.5953V120.42H22.3953ZM22.3953 111.84H23.1953C23.1953 110.569 23.4632 109.487 23.9742 108.569L23.2753 108.18L22.5764 107.791C21.9141 108.98 21.5953 110.338 21.5953 111.84H22.3953ZM23.2753 108.18L23.9763 108.566C24.4942 107.624 25.1973 106.906 26.0922 106.395L25.6953 105.7L25.2984 105.005C24.14 105.667 23.2298 106.603 22.5743 107.794L23.2753 108.18ZM25.6953 105.7L26.099 106.391C26.9864 105.872 28.0364 105.6 29.2753 105.6V104.8V104C27.7942 104 26.4575 104.328 25.2917 105.009L25.6953 105.7ZM29.2753 104.8V105.6C31.1302 105.6 32.5587 106.18 33.6408 107.297L34.2153 106.74L34.7898 106.183C33.3652 104.713 31.5004 104 29.2753 104V104.8ZM34.2153 106.74L33.6408 107.297C34.7251 108.416 35.2953 109.903 35.2953 111.84H36.0953H36.8953C36.8953 109.563 36.2121 107.651 34.7898 106.183L34.2153 106.74ZM36.0953 111.84H35.2953V116.58H36.0953H36.8953V111.84H36.0953ZM36.0953 116.58V115.78H24.7153V116.58V117.38H36.0953V116.58ZM24.7153 116.58H25.5153V113.78H24.7153H23.9153V116.58H24.7153ZM24.7153 113.78V114.58H33.1953V113.78V112.98H24.7153V113.78ZM33.1953 113.78H33.9953V111.74H33.1953H32.3953V113.78H33.1953ZM33.1953 111.74H33.9953C33.9953 110.362 33.5886 109.175 32.7114 108.265L32.1353 108.82L31.5593 109.375C32.0954 109.931 32.3953 110.691 32.3953 111.74H33.1953ZM32.1353 108.82L32.7215 108.276C31.8481 107.335 30.665 106.9 29.2753 106.9V107.7V108.5C30.3123 108.5 31.0359 108.812 31.5491 109.364L32.1353 108.82ZM29.2753 107.7V106.9C27.8848 106.9 26.6959 107.335 25.7994 108.265L26.3753 108.82L26.9512 109.375C27.4947 108.812 28.2392 108.5 29.2753 108.5V107.7ZM26.3753 108.82L25.8045 108.26C24.9114 109.169 24.4953 110.358 24.4953 111.74H25.2953H26.0953C26.0953 110.696 26.3992 109.938 26.9462 109.38L26.3753 108.82ZM25.2953 111.74H24.4953V120.52H25.2953H26.0953V111.74H25.2953ZM25.2953 120.52H24.4953C24.4953 121.903 24.9114 123.094 25.7994 124.015L26.3753 123.46L26.9512 122.905C26.3992 122.332 26.0953 121.564 26.0953 120.52H25.2953ZM26.3753 123.46L25.7994 124.015C26.6959 124.945 27.8848 125.38 29.2753 125.38V124.58V123.78C28.2392 123.78 27.4947 123.468 26.9512 122.905L26.3753 123.46ZM29.2753 124.58V125.38C30.665 125.38 31.8481 124.945 32.7215 124.004L32.1353 123.46L31.5491 122.916C31.0359 123.468 30.3123 123.78 29.2753 123.78V124.58ZM32.1353 123.46L32.7163 124.01C33.5885 123.088 33.9953 121.899 33.9953 120.52H33.1953H32.3953C32.3953 121.568 32.0954 122.338 31.5543 122.91L32.1353 123.46ZM33.1953 120.52H33.9953V120.02H33.1953H32.3953V120.52H33.1953ZM33.1953 120.02V120.82H36.0953V120.02V119.22H33.1953V120.02ZM36.0953 120.02H35.2953V120.42H36.0953H36.8953V120.02H36.0953ZM36.0953 120.42H35.2953C35.2953 122.357 34.7252 123.853 33.638 124.986L34.2153 125.54L34.7927 126.094C36.2121 124.614 36.8953 122.697 36.8953 120.42H36.0953ZM34.2153 125.54L33.6408 124.983C32.5587 126.1 31.1302 126.68 29.2753 126.68V127.48V128.28C31.5004 128.28 33.3652 127.567 34.7898 126.097L34.2153 125.54ZM44.7841 127L44.0148 127.22L44.1806 127.8H44.7841V127ZM38.5841 105.3V104.5H37.5235L37.8148 105.52L38.5841 105.3ZM41.6841 105.3L42.4545 105.085L42.2911 104.5H41.6841V105.3ZM46.8841 123.9V124.7H47.9384L47.6545 123.685L46.8841 123.9ZM46.1841 123.9L45.4132 123.686L45.1319 124.7H46.1841V123.9ZM51.3441 105.3V104.5H50.7358L50.5732 105.086L51.3441 105.3ZM54.4441 105.3L55.2138 105.518L55.5018 104.5H54.4441V105.3ZM48.3041 127V127.8H48.9091L49.0738 127.218L48.3041 127ZM44.7841 127L45.5533 126.78L39.3533 105.08L38.5841 105.3L37.8148 105.52L44.0148 127.22L44.7841 127ZM38.5841 105.3V106.1H41.6841V105.3V104.5H38.5841V105.3ZM41.6841 105.3L40.9136 105.515L46.1136 124.115L46.8841 123.9L47.6545 123.685L42.4545 105.085L41.6841 105.3ZM46.8841 123.9V123.1H46.1841V123.9V124.7H46.8841V123.9ZM46.1841 123.9L46.9549 124.114L52.1149 105.514L51.3441 105.3L50.5732 105.086L45.4132 123.686L46.1841 123.9ZM51.3441 105.3V106.1H54.4441V105.3V104.5H51.3441V105.3ZM54.4441 105.3L53.6743 105.082L47.5343 126.782L48.3041 127L49.0738 127.218L55.2138 105.518L54.4441 105.3ZM48.3041 127V126.2H44.7841V127V127.8H48.3041V127ZM60.1094 126.6L59.7125 127.295L59.7125 127.295L60.1094 126.6ZM57.6894 124.14L56.9884 124.526L56.9905 124.529L57.6894 124.14ZM57.6894 108.18L58.3883 108.569L58.3903 108.566L57.6894 108.18ZM60.1094 105.7L60.5063 106.395L60.513 106.391L60.1094 105.7ZM68.6294 106.74L68.0549 107.297L68.0549 107.297L68.6294 106.74ZM70.5094 116.58V117.38H71.3094V116.58H70.5094ZM59.1294 116.58H58.3294V117.38H59.1294V116.58ZM59.1294 113.78V112.98H58.3294V113.78H59.1294ZM67.6094 113.78V114.58H68.4094V113.78H67.6094ZM66.5494 108.82L65.9631 109.364L65.9682 109.37L65.9733 109.375L66.5494 108.82ZM60.7894 108.82L61.3602 109.38L61.3653 109.375L60.7894 108.82ZM60.7894 123.46L60.2135 124.015L60.2135 124.015L60.7894 123.46ZM66.5494 123.46L65.9683 122.91L65.9631 122.916L66.5494 123.46ZM67.6094 120.02V119.22H66.8094V120.02H67.6094ZM70.5094 120.02H71.3094V119.22H70.5094V120.02ZM68.6294 125.54L69.2039 126.097L69.2067 126.094L68.6294 125.54ZM63.6894 127.48V126.68C62.4474 126.68 61.3949 126.413 60.5063 125.905L60.1094 126.6L59.7125 127.295C60.8772 127.96 62.2113 128.28 63.6894 128.28V127.48ZM60.1094 126.6L60.5063 125.905C59.6088 125.393 58.9055 124.679 58.3883 123.751L57.6894 124.14L56.9905 124.529C57.6466 125.707 58.5566 126.634 59.7125 127.295L60.1094 126.6ZM57.6894 124.14L58.3903 123.754C57.8784 122.824 57.6094 121.72 57.6094 120.42H56.8094H56.0094C56.0094 121.946 56.327 123.323 56.9884 124.526L57.6894 124.14ZM56.8094 120.42H57.6094V111.84H56.8094H56.0094V120.42H56.8094ZM56.8094 111.84H57.6094C57.6094 110.569 57.8773 109.487 58.3883 108.569L57.6894 108.18L56.9905 107.791C56.3281 108.98 56.0094 110.338 56.0094 111.84H56.8094ZM57.6894 108.18L58.3903 108.566C58.9082 107.624 59.6114 106.906 60.5063 106.395L60.1094 105.7L59.7125 105.005C58.554 105.667 57.6438 106.603 56.9884 107.794L57.6894 108.18ZM60.1094 105.7L60.513 106.391C61.4005 105.872 62.4505 105.6 63.6894 105.6V104.8V104C62.2082 104 60.8716 104.328 59.7057 105.009L60.1094 105.7ZM63.6894 104.8V105.6C65.5443 105.6 66.9728 106.18 68.0549 107.297L68.6294 106.74L69.2039 106.183C67.7793 104.713 65.9144 104 63.6894 104V104.8ZM68.6294 106.74L68.0549 107.297C69.1392 108.416 69.7094 109.903 69.7094 111.84H70.5094H71.3094C71.3094 109.563 70.6262 107.651 69.2039 106.183L68.6294 106.74ZM70.5094 111.84H69.7094V116.58H70.5094H71.3094V111.84H70.5094ZM70.5094 116.58V115.78H59.1294V116.58V117.38H70.5094V116.58ZM59.1294 116.58H59.9294V113.78H59.1294H58.3294V116.58H59.1294ZM59.1294 113.78V114.58H67.6094V113.78V112.98H59.1294V113.78ZM67.6094 113.78H68.4094V111.74H67.6094H66.8094V113.78H67.6094ZM67.6094 111.74H68.4094C68.4094 110.362 68.0026 109.175 67.1254 108.265L66.5494 108.82L65.9733 109.375C66.5094 109.931 66.8094 110.691 66.8094 111.74H67.6094ZM66.5494 108.82L67.1356 108.276C66.2622 107.335 65.0791 106.9 63.6894 106.9V107.7V108.5C64.7263 108.5 65.4499 108.812 65.9631 109.364L66.5494 108.82ZM63.6894 107.7V106.9C62.2988 106.9 61.11 107.335 60.2135 108.265L60.7894 108.82L61.3653 109.375C61.9088 108.812 62.6532 108.5 63.6894 108.5V107.7ZM60.7894 108.82L60.2185 108.26C59.3255 109.169 58.9094 110.358 58.9094 111.74H59.7094H60.5094C60.5094 110.696 60.8133 109.938 61.3602 109.38L60.7894 108.82ZM59.7094 111.74H58.9094V120.52H59.7094H60.5094V111.74H59.7094ZM59.7094 120.52H58.9094C58.9094 121.903 59.3255 123.094 60.2135 124.015L60.7894 123.46L61.3653 122.905C60.8132 122.332 60.5094 121.564 60.5094 120.52H59.7094ZM60.7894 123.46L60.2135 124.015C61.11 124.945 62.2988 125.38 63.6894 125.38V124.58V123.78C62.6532 123.78 61.9088 123.468 61.3653 122.905L60.7894 123.46ZM63.6894 124.58V125.38C65.0791 125.38 66.2622 124.945 67.1356 124.004L66.5494 123.46L65.9631 122.916C65.4499 123.468 64.7263 123.78 63.6894 123.78V124.58ZM66.5494 123.46L67.1304 124.01C68.0026 123.088 68.4094 121.899 68.4094 120.52H67.6094H66.8094C66.8094 121.568 66.5095 122.338 65.9683 122.91L66.5494 123.46ZM67.6094 120.52H68.4094V120.02H67.6094H66.8094V120.52H67.6094ZM67.6094 120.02V120.82H70.5094V120.02V119.22H67.6094V120.02ZM70.5094 120.02H69.7094V120.42H70.5094H71.3094V120.02H70.5094ZM70.5094 120.42H69.7094C69.7094 122.357 69.1392 123.853 68.052 124.986L68.6294 125.54L69.2067 126.094C70.6262 124.614 71.3094 122.697 71.3094 120.42H70.5094ZM68.6294 125.54L68.0549 124.983C66.9728 126.1 65.5443 126.68 63.6894 126.68V127.48V128.28C65.9144 128.28 67.7793 127.567 69.2039 126.097L68.6294 125.54ZM75.4181 127H74.6181V127.8H75.4181V127ZM75.4181 105.3V104.5H74.6181V105.3H75.4181ZM78.3181 105.3H79.1181V104.5H78.3181V105.3ZM78.3181 108.2L77.7122 108.722L79.1181 110.353V108.2H78.3181ZM77.8181 107.62L77.1198 107.23L76.8467 107.718L77.2122 108.142L77.8181 107.62ZM79.8381 105.54L80.2351 106.235L80.2433 106.23L79.8381 105.54ZM88.8181 127V127.8H89.6181V127H88.8181ZM85.9181 127H85.1181V127.8H85.9181V127ZM84.8781 108.82L84.2867 109.359L84.2917 109.364L84.2968 109.37L84.8781 108.82ZM79.3581 108.82L78.7771 108.27L78.7768 108.27L79.3581 108.82ZM78.3181 127V127.8H79.1181V127H78.3181ZM75.4181 127H76.2181V105.3H75.4181H74.6181V127H75.4181ZM75.4181 105.3V106.1H78.3181V105.3V104.5H75.4181V105.3ZM78.3181 105.3H77.5181V108.2H78.3181H79.1181V105.3H78.3181ZM78.3181 108.2L78.9241 107.678L78.4241 107.098L77.8181 107.62L77.2122 108.142L77.7122 108.722L78.3181 108.2ZM77.8181 107.62L78.5165 108.01C78.9576 107.221 79.5306 106.637 80.235 106.235L79.8381 105.54L79.4412 104.845C78.4656 105.403 77.692 106.206 77.1198 107.23L77.8181 107.62ZM79.8381 105.54L80.2433 106.23C80.943 105.819 81.7789 105.6 82.7781 105.6V104.8V104C81.5373 104 80.4132 104.274 79.433 104.85L79.8381 105.54ZM82.7781 104.8V105.6C84.3839 105.6 85.6175 106.144 86.5584 107.21L87.1581 106.68L87.7578 106.15C86.4854 104.709 84.7991 104 82.7781 104V104.8ZM87.1581 106.68L86.5584 107.21C87.5043 108.281 88.0181 109.761 88.0181 111.74H88.8181H89.6181C89.6181 109.479 89.0253 107.586 87.7578 106.15L87.1581 106.68ZM88.8181 111.74H88.0181V127H88.8181H89.6181V111.74H88.8181ZM88.8181 127V126.2H85.9181V127V127.8H88.8181V127ZM85.9181 127H86.7181V111.74H85.9181H85.1181V127H85.9181ZM85.9181 111.74H86.7181C86.7181 110.366 86.3207 109.181 85.4594 108.27L84.8781 108.82L84.2968 109.37C84.8222 109.925 85.1181 110.687 85.1181 111.74H85.9181ZM84.8781 108.82L85.4696 108.281C84.6186 107.347 83.4861 106.9 82.1581 106.9V107.7V108.5C83.0968 108.5 83.7776 108.8 84.2867 109.359L84.8781 108.82ZM82.1581 107.7V106.9C80.8094 106.9 79.6549 107.343 78.7771 108.27L79.3581 108.82L79.9392 109.37C80.4746 108.804 81.1869 108.5 82.1581 108.5V107.7ZM79.3581 108.82L78.7768 108.27C77.9156 109.181 77.5181 110.366 77.5181 111.74H78.3181H79.1181C79.1181 110.687 79.414 109.925 79.9394 109.37L79.3581 108.82ZM78.3181 111.74H77.5181V127H78.3181H79.1181V111.74H78.3181ZM78.3181 127V126.2H75.4181V127V127.8H78.3181V127ZM97.4063 125.28L96.8231 125.828L96.8289 125.834L97.4063 125.28ZM95.5463 108H96.3463V107.2H95.5463V108ZM91.6463 108H90.8462V108.8H91.6463V108ZM91.6463 105.26V104.46H90.8462V105.26H91.6463ZM95.5463 105.26V106.06H96.3463V105.26H95.5463ZM95.5463 99.8V99H94.7463V99.8H95.5463ZM98.4463 99.8H99.2463V99H98.4463V99.8ZM98.4463 105.26H97.6463V106.06H98.4463V105.26ZM103.846 105.26H104.646V104.46H103.846V105.26ZM103.846 108V108.8H104.646V108H103.846ZM98.4463 108V107.2H97.6463V108H98.4463ZM99.5263 123.16L98.9316 123.695L98.9361 123.7L99.5263 123.16ZM103.846 124.34H104.646V123.54H103.846V124.34ZM103.846 127.24V128.04H104.646V127.24H103.846ZM102.386 127.24V126.44C100.504 126.44 99.0642 125.853 97.9836 124.726L97.4063 125.28L96.8289 125.834C98.255 127.321 100.135 128.04 102.386 128.04V127.24ZM97.4063 125.28L97.9893 124.732C96.9182 123.592 96.3463 122.037 96.3463 119.98H95.5463H94.7463C94.7463 122.349 95.4143 124.328 96.8232 125.828L97.4063 125.28ZM95.5463 119.98H96.3463V108H95.5463H94.7463V119.98H95.5463ZM95.5463 108V107.2H91.6463V108V108.8H95.5463V108ZM91.6463 108H92.4463V105.26H91.6463H90.8462V108H91.6463ZM91.6463 105.26V106.06H95.5463V105.26V104.46H91.6463V105.26ZM95.5463 105.26H96.3463V99.8H95.5463H94.7463V105.26H95.5463ZM95.5463 99.8V100.6H98.4463V99.8V99H95.5463V99.8ZM98.4463 99.8H97.6463V105.26H98.4463H99.2463V99.8H98.4463ZM98.4463 105.26V106.06H103.846V105.26V104.46H98.4463V105.26ZM103.846 105.26H103.046V108H103.846H104.646V105.26H103.846ZM103.846 108V107.2H98.4463V108V108.8H103.846V108ZM98.4463 108H97.6463V119.98H98.4463H99.2463V108H98.4463ZM98.4463 119.98H97.6463C97.6463 121.451 98.0511 122.717 98.9316 123.695L99.5263 123.16L100.121 122.625C99.5614 122.003 99.2463 121.149 99.2463 119.98H98.4463ZM99.5263 123.16L98.9361 123.7C99.8257 124.672 101.003 125.14 102.386 125.14V124.34V123.54C101.396 123.54 100.667 123.221 100.116 122.62L99.5263 123.16ZM102.386 124.34V125.14H103.846V124.34V123.54H102.386V124.34ZM103.846 124.34H103.046V127.24H103.846H104.646V124.34H103.846ZM103.846 127.24V126.44H102.386V127.24V128.04H103.846V127.24ZM110.188 126.6L109.791 127.295L109.791 127.295L110.188 126.6ZM107.768 124.14L107.067 124.526L107.069 124.529L107.768 124.14ZM107.768 108.18L108.466 108.569L108.468 108.566L107.768 108.18ZM110.188 105.7L110.584 106.395L110.591 106.391L110.188 105.7ZM118.708 106.74L118.133 107.297L118.133 107.297L118.708 106.74ZM118.708 125.54L119.282 126.097L119.285 126.094L118.708 125.54ZM116.628 123.46L116.046 122.91L116.041 122.916L116.628 123.46ZM116.628 108.82L116.041 109.364L116.046 109.37L116.051 109.375L116.628 108.82ZM110.868 108.82L111.438 109.38L111.443 109.375L110.868 108.82ZM110.868 123.46L110.292 124.015L110.292 124.015L110.868 123.46ZM113.768 127.48V126.68C112.526 126.68 111.473 126.413 110.584 125.905L110.188 126.6L109.791 127.295C110.955 127.96 112.289 128.28 113.768 128.28V127.48ZM110.188 126.6L110.584 125.905C109.687 125.393 108.984 124.679 108.466 123.751L107.768 124.14L107.069 124.529C107.725 125.707 108.635 126.634 109.791 127.295L110.188 126.6ZM107.768 124.14L108.468 123.754C107.957 122.824 107.688 121.72 107.688 120.42H106.888H106.088C106.088 121.946 106.405 123.323 107.067 124.526L107.768 124.14ZM106.888 120.42H107.688V111.84H106.888H106.088V120.42H106.888ZM106.888 111.84H107.688C107.688 110.569 107.955 109.487 108.466 108.569L107.768 108.18L107.069 107.791C106.406 108.98 106.088 110.338 106.088 111.84H106.888ZM107.768 108.18L108.468 108.566C108.986 107.624 109.69 106.906 110.584 106.395L110.188 105.7L109.791 105.005C108.632 105.667 107.722 106.603 107.067 107.794L107.768 108.18ZM110.188 105.7L110.591 106.391C111.479 105.872 112.529 105.6 113.768 105.6V104.8V104C112.286 104 110.95 104.328 109.784 105.009L110.188 105.7ZM113.768 104.8V105.6C115.622 105.6 117.051 106.18 118.133 107.297L118.708 106.74L119.282 106.183C117.857 104.713 115.993 104 113.768 104V104.8ZM118.708 106.74L118.133 107.297C119.217 108.416 119.788 109.903 119.788 111.84H120.588H121.388C121.388 109.563 120.704 107.651 119.282 106.183L118.708 106.74ZM120.588 111.84H119.788V120.42H120.588H121.388V111.84H120.588ZM120.588 120.42H119.788C119.788 122.357 119.217 123.853 118.13 124.986L118.708 125.54L119.285 126.094C120.704 124.614 121.388 122.697 121.388 120.42H120.588ZM118.708 125.54L118.133 124.983C117.051 126.1 115.622 126.68 113.768 126.68V127.48V128.28C115.993 128.28 117.857 127.567 119.282 126.097L118.708 125.54ZM113.768 124.58V125.38C115.157 125.38 116.34 124.945 117.214 124.004L116.628 123.46L116.041 122.916C115.528 123.468 114.804 123.78 113.768 123.78V124.58ZM116.628 123.46L117.209 124.01C118.081 123.088 118.488 121.899 118.488 120.52H117.688H116.888C116.888 121.568 116.588 122.338 116.046 122.91L116.628 123.46ZM117.688 120.52H118.488V111.74H117.688H116.888V120.52H117.688ZM117.688 111.74H118.488C118.488 110.362 118.081 109.175 117.204 108.265L116.628 108.82L116.051 109.375C116.588 109.931 116.888 110.691 116.888 111.74H117.688ZM116.628 108.82L117.214 108.276C116.34 107.335 115.157 106.9 113.768 106.9V107.7V108.5C114.804 108.5 115.528 108.812 116.041 109.364L116.628 108.82ZM113.768 107.7V106.9C112.377 106.9 111.188 107.335 110.292 108.265L110.868 108.82L111.443 109.375C111.987 108.812 112.731 108.5 113.768 108.5V107.7ZM110.868 108.82L110.297 108.26C109.404 109.169 108.988 110.358 108.988 111.74H109.788H110.588C110.588 110.696 110.891 109.938 111.438 109.38L110.868 108.82ZM109.788 111.74H108.988V120.52H109.788H110.588V111.74H109.788ZM109.788 120.52H108.988C108.988 121.903 109.404 123.094 110.292 124.015L110.868 123.46L111.443 122.905C110.891 122.332 110.588 121.564 110.588 120.52H109.788ZM110.868 123.46L110.292 124.015C111.188 124.945 112.377 125.38 113.768 125.38V124.58V123.78C112.731 123.78 111.987 123.468 111.443 122.905L110.868 123.46ZM126.473 125.7L125.916 126.275L125.922 126.281L126.473 125.7ZM124.613 120.26V119.46H123.813V120.26H124.613ZM127.513 120.26H128.313V119.46H127.513V120.26ZM128.573 123.62L128.035 124.213L128.041 124.218L128.573 123.62ZM134.112 123.62L133.558 123.043L133.558 123.043L134.112 123.62ZM134.653 119.04L133.993 119.493L134.001 119.505L134.01 119.517L134.653 119.04ZM133.372 118.08L133.088 118.828L133.088 118.828L133.372 118.08ZM131.333 117.52L131.166 118.303L131.176 118.304L131.333 117.52ZM127.833 116.6L127.574 117.357L127.583 117.36L127.833 116.6ZM125.452 114.96L124.812 115.44L124.818 115.447L125.452 114.96ZM126.433 106.56L126.985 107.138L126.985 107.138L126.433 106.56ZM136.173 106.6L135.61 107.169L135.616 107.175L136.173 106.6ZM138.013 111.98V112.78H138.813V111.98H138.013ZM135.113 111.98H134.313V112.78H135.113V111.98ZM134.073 108.66L133.524 109.243L133.53 109.248L133.536 109.253L134.073 108.66ZM128.533 108.68L129.081 109.263L129.081 109.262L128.533 108.68ZM127.952 113.28L127.293 113.733L127.301 113.745L127.31 113.757L127.952 113.28ZM129.273 114.2L129.536 113.445L129.536 113.445L129.273 114.2ZM131.333 114.76L131.163 115.542L131.173 115.544L131.333 114.76ZM134.793 115.68L135.055 114.924L135.055 114.924L134.793 115.68ZM137.153 117.34L136.514 117.822L136.514 117.822L137.153 117.34ZM136.213 125.74L136.772 126.312L136.772 126.312L136.213 125.74ZM131.453 127.48V126.68C129.548 126.68 128.099 126.138 127.023 125.119L126.473 125.7L125.922 126.281C127.353 127.635 129.224 128.28 131.453 128.28V127.48ZM126.473 125.7L127.029 125.125C125.966 124.097 125.413 122.735 125.413 120.96H124.613H123.813C123.813 123.105 124.499 124.903 125.916 126.275L126.473 125.7ZM124.613 120.96H125.413V120.26H124.613H123.813V120.96H124.613ZM124.613 120.26V121.06H127.513V120.26V119.46H124.613V120.26ZM127.513 120.26H126.713V121.08H127.513H128.313V120.26H127.513ZM127.513 121.08H126.713C126.713 122.333 127.143 123.404 128.035 124.213L128.573 123.62L129.11 123.027C128.589 122.556 128.313 121.934 128.313 121.08H127.513ZM128.573 123.62L128.041 124.218C128.938 125.015 130.088 125.38 131.413 125.38V124.58V123.78C130.39 123.78 129.647 123.505 129.104 123.022L128.573 123.62ZM131.413 124.58V125.38C132.703 125.38 133.819 125.011 134.667 124.197L134.112 123.62L133.558 123.043C133.073 123.509 132.389 123.78 131.413 123.78V124.58ZM134.112 123.62L134.667 124.197C135.535 123.363 135.913 122.2 135.913 120.84H135.113H134.313C134.313 121.907 134.023 122.597 133.558 123.043L134.112 123.62ZM135.113 120.84H135.913C135.913 119.967 135.745 119.17 135.295 118.563L134.653 119.04L134.01 119.517C134.173 119.736 134.313 120.14 134.313 120.84H135.113ZM134.653 119.04L135.312 118.587C134.913 118.006 134.344 117.594 133.657 117.332L133.372 118.08L133.088 118.828C133.521 118.992 133.806 119.221 133.993 119.493L134.653 119.04ZM133.372 118.08L133.657 117.332C133.044 117.099 132.319 116.901 131.489 116.736L131.333 117.52L131.176 118.304C131.946 118.459 132.581 118.635 133.088 118.828L133.372 118.08ZM131.333 117.52L131.499 116.737C130.2 116.462 129.062 116.162 128.082 115.84L127.833 116.6L127.583 117.36C128.629 117.704 129.825 118.018 131.166 118.303L131.333 117.52ZM127.833 116.6L128.091 115.843C127.206 115.54 126.552 115.078 126.087 114.473L125.452 114.96L124.818 115.447C125.5 116.335 126.432 116.967 127.574 117.357L127.833 116.6ZM125.452 114.96L126.092 114.48C125.681 113.932 125.413 113.021 125.413 111.62H124.613H123.813C123.813 113.179 124.104 114.495 124.812 115.44L125.452 114.96ZM124.613 111.62H125.413C125.413 109.552 125.976 108.104 126.985 107.138L126.433 106.56L125.88 105.982C124.463 107.336 123.813 109.261 123.813 111.62H124.613ZM126.433 106.56L126.985 107.138C128.038 106.131 129.434 105.6 131.253 105.6V104.8V104C129.097 104 127.28 104.642 125.88 105.982L126.433 106.56ZM131.253 104.8V105.6C133.156 105.6 134.577 106.147 135.61 107.169L136.173 106.6L136.735 106.031C135.341 104.653 133.482 104 131.253 104V104.8ZM136.173 106.6L135.616 107.175C136.665 108.189 137.213 109.537 137.213 111.3H138.013H138.813C138.813 109.17 138.134 107.384 136.729 106.025L136.173 106.6ZM138.013 111.3H137.213V111.98H138.013H138.813V111.3H138.013ZM138.013 111.98V111.18H135.113V111.98V112.78H138.013V111.98ZM135.113 111.98H135.913V111.2H135.113H134.313V111.98H135.113ZM135.113 111.2H135.913C135.913 109.942 135.495 108.867 134.609 108.066L134.073 108.66L133.536 109.253C134.037 109.706 134.313 110.324 134.313 111.2H135.113ZM134.073 108.66L134.621 108.077C133.757 107.264 132.615 106.9 131.293 106.9V107.7V108.5C132.317 108.5 133.028 108.776 133.524 109.243L134.073 108.66ZM131.293 107.7V106.9C129.986 106.9 128.855 107.277 127.984 108.098L128.533 108.68L129.081 109.262C129.597 108.776 130.306 108.5 131.293 108.5V107.7ZM128.533 108.68L127.984 108.097C127.099 108.93 126.713 110.096 126.713 111.46H127.513H128.313C128.313 110.398 128.606 109.71 129.081 109.263L128.533 108.68ZM127.513 111.46H126.713C126.713 112.33 126.872 113.12 127.293 113.733L127.952 113.28L128.612 112.827C128.446 112.586 128.313 112.164 128.313 111.46H127.513ZM127.952 113.28L127.31 113.757C127.728 114.321 128.312 114.712 129.009 114.955L129.273 114.2L129.536 113.445C129.086 113.288 128.79 113.066 128.595 112.803L127.952 113.28ZM129.273 114.2L129.009 114.955C129.622 115.169 130.341 115.364 131.163 115.542L131.333 114.76L131.502 113.978C130.724 113.81 130.07 113.631 129.536 113.445L129.273 114.2ZM131.333 114.76L131.173 115.544C132.453 115.805 133.571 116.103 134.53 116.436L134.793 115.68L135.055 114.924C134.014 114.563 132.825 114.248 131.492 113.976L131.333 114.76ZM134.793 115.68L134.53 116.436C135.398 116.737 136.047 117.202 136.514 117.822L137.153 117.34L137.791 116.858C137.112 115.958 136.187 115.317 135.055 114.924L134.793 115.68ZM137.153 117.34L136.514 117.822C136.938 118.384 137.213 119.308 137.213 120.72H138.013H138.813C138.813 119.145 138.514 117.816 137.791 116.858L137.153 117.34ZM138.013 120.72H137.213C137.213 122.745 136.657 124.186 135.653 125.168L136.213 125.74L136.772 126.312C138.168 124.947 138.813 123.042 138.813 120.72H138.013ZM136.213 125.74L135.653 125.168C134.645 126.154 133.274 126.68 131.453 126.68V127.48V128.28C133.604 128.28 135.407 127.646 136.772 126.312L136.213 125.74Z" fill="#FFFDFD" fill-opacity="0.7" mask="url(#path-7-outside-4_719_37)"/>
</g>
<mask id="path-9-outside-5_719_37" maskUnits="userSpaceOnUse" x="15" y="21" width="38" height="78" fill="black">
<rect fill="white" x="15" y="21" width="38" height="78"/>
<path d="M51.472 76.416V79.776C51.472 85.088 49.888 89.376 46.72 92.64C43.552 95.904 39.296 97.536 33.952 97.536C28.64 97.536 24.384 95.904 21.184 92.64C18.016 89.376 16.432 85.088 16.432 79.776V40.224C16.432 34.88 18.016 30.592 21.184 27.36C24.384 24.096 28.64 22.464 33.952 22.464C39.296 22.464 43.552 24.096 46.72 27.36C49.888 30.592 51.472 34.88 51.472 40.224V43.584H40.432V40.224C40.432 38.208 39.856 36.592 38.704 35.376C37.552 34.128 35.968 33.504 33.952 33.504C31.936 33.504 30.352 34.128 29.2 35.376C28.048 36.592 27.472 38.208 27.472 40.224V79.776C27.472 81.792 28.048 83.424 29.2 84.672C30.352 85.888 31.936 86.496 33.952 86.496C35.968 86.496 37.552 85.888 38.704 84.672C39.856 83.424 40.432 81.792 40.432 79.776V76.416H51.472Z"/>
</mask>
<path d="M51.472 76.416V79.776C51.472 85.088 49.888 89.376 46.72 92.64C43.552 95.904 39.296 97.536 33.952 97.536C28.64 97.536 24.384 95.904 21.184 92.64C18.016 89.376 16.432 85.088 16.432 79.776V40.224C16.432 34.88 18.016 30.592 21.184 27.36C24.384 24.096 28.64 22.464 33.952 22.464C39.296 22.464 43.552 24.096 46.72 27.36C49.888 30.592 51.472 34.88 51.472 40.224V43.584H40.432V40.224C40.432 38.208 39.856 36.592 38.704 35.376C37.552 34.128 35.968 33.504 33.952 33.504C31.936 33.504 30.352 34.128 29.2 35.376C28.048 36.592 27.472 38.208 27.472 40.224V79.776C27.472 81.792 28.048 83.424 29.2 84.672C30.352 85.888 31.936 86.496 33.952 86.496C35.968 86.496 37.552 85.888 38.704 84.672C39.856 83.424 40.432 81.792 40.432 79.776V76.416H51.472Z" fill="#1C1917"/>
<path d="M51.472 76.416H52.472V75.416H51.472V76.416ZM46.72 92.64L47.4376 93.3365L47.4376 93.3365L46.72 92.64ZM21.184 92.64L20.4664 93.3365L20.4699 93.3401L21.184 92.64ZM21.184 27.36L20.4699 26.6599L20.4699 26.66L21.184 27.36ZM46.72 27.36L46.0024 28.0565L46.0059 28.06L46.72 27.36ZM51.472 43.584V44.584H52.472V43.584H51.472ZM40.432 43.584H39.432V44.584H40.432V43.584ZM38.704 35.376L37.9691 36.0543L37.978 36.0637L38.704 35.376ZM29.2 35.376L29.926 36.0638L29.9348 36.0543L29.2 35.376ZM29.2 84.672L28.4651 85.3503L28.474 85.3597L29.2 84.672ZM38.704 84.672L39.43 85.3598L39.4388 85.3503L38.704 84.672ZM40.432 76.416V75.416H39.432V76.416H40.432ZM51.472 76.416H50.472V79.776H51.472H52.472V76.416H51.472ZM51.472 79.776H50.472C50.472 84.8748 48.9591 88.8973 46.0024 91.9435L46.72 92.64L47.4376 93.3365C50.8169 89.8547 52.472 85.3012 52.472 79.776H51.472ZM46.72 92.64L46.0024 91.9435C43.0556 94.9796 39.0768 96.536 33.952 96.536V97.536V98.536C39.5152 98.536 44.0484 96.8284 47.4376 93.3365L46.72 92.64ZM33.952 97.536V96.536C28.8614 96.536 24.8793 94.9808 21.8981 91.9399L21.184 92.64L20.4699 93.3401C23.8887 96.8272 28.4186 98.536 33.952 98.536V97.536ZM21.184 92.64L21.9016 91.9435C18.9449 88.8973 17.432 84.8748 17.432 79.776H16.432H15.432C15.432 85.3012 17.0871 89.8547 20.4664 93.3365L21.184 92.64ZM16.432 79.776H17.432V40.224H16.432H15.432V79.776H16.432ZM16.432 40.224H17.432C17.432 35.091 18.9461 31.0717 21.8981 28.06L21.184 27.36L20.4699 26.66C17.0859 30.1123 15.432 34.669 15.432 40.224H16.432ZM21.184 27.36L21.8981 28.0601C24.8793 25.0192 28.8614 23.464 33.952 23.464V22.464V21.464C28.4186 21.464 23.8887 23.1728 20.4699 26.6599L21.184 27.36ZM33.952 22.464V23.464C39.0768 23.464 43.0556 25.0204 46.0024 28.0565L46.72 27.36L47.4376 26.6635C44.0484 23.1716 39.5152 21.464 33.952 21.464V22.464ZM46.72 27.36L46.0059 28.06C48.9579 31.0717 50.472 35.091 50.472 40.224H51.472H52.472C52.472 34.669 50.8181 30.1123 47.4341 26.66L46.72 27.36ZM51.472 40.224H50.472V43.584H51.472H52.472V40.224H51.472ZM51.472 43.584V42.584H40.432V43.584V44.584H51.472V43.584ZM40.432 43.584H41.432V40.224H40.432H39.432V43.584H40.432ZM40.432 40.224H41.432C41.432 38.0074 40.7926 36.1266 39.43 34.6883L38.704 35.376L37.978 36.0637C38.9194 37.0574 39.432 38.4086 39.432 40.224H40.432ZM38.704 35.376L39.4388 34.6977C38.0621 33.2063 36.1903 32.504 33.952 32.504V33.504V34.504C35.7457 34.504 37.0419 35.0497 37.9692 36.0543L38.704 35.376ZM33.952 33.504V32.504C31.7137 32.504 29.8419 33.2063 28.4652 34.6977L29.2 35.376L29.9348 36.0543C30.8621 35.0497 32.1583 34.504 33.952 34.504V33.504ZM29.2 35.376L28.474 34.6883C27.1114 36.1266 26.472 38.0074 26.472 40.224H27.472H28.472C28.472 38.4086 28.9846 37.0574 29.926 36.0637L29.2 35.376ZM27.472 40.224H26.472V79.776H27.472H28.472V40.224H27.472ZM27.472 79.776H26.472C26.472 81.9935 27.1116 83.8839 28.4652 85.3503L29.2 84.672L29.9348 83.9937C28.9844 82.9641 28.472 81.5905 28.472 79.776H27.472ZM29.2 84.672L28.474 85.3597C29.8527 86.815 31.7217 87.496 33.952 87.496V86.496V85.496C32.1503 85.496 30.8513 84.961 29.926 83.9843L29.2 84.672ZM33.952 86.496V87.496C36.1823 87.496 38.0513 86.815 39.43 85.3597L38.704 84.672L37.978 83.9843C37.0527 84.961 35.7537 85.496 33.952 85.496V86.496ZM38.704 84.672L39.4388 85.3503C40.7924 83.8839 41.432 81.9935 41.432 79.776H40.432H39.432C39.432 81.5905 38.9196 82.9641 37.9692 83.9937L38.704 84.672ZM40.432 79.776H41.432V76.416H40.432H39.432V79.776H40.432ZM40.432 76.416V77.416H51.472V76.416V75.416H40.432V76.416Z" fill="#FA7D29" mask="url(#path-9-outside-5_719_37)"/>
</g>
<defs>
<filter id="filter0_d_719_37" x="-78.4043" y="-1" width="317.217" height="229.28" filterUnits="userSpaceOnUse" color-interpolation-filters="sRGB">
<feFlood flood-opacity="0" result="BackgroundImageFix"/>
<feColorMatrix in="SourceAlpha" type="matrix" values="0 0 0 0 0 0 0 0 0 0 0 0 0 0 0 0 0 0 127 0" result="hardAlpha"/>
<feOffset/>
<feGaussianBlur stdDeviation="50"/>
<feComposite in2="hardAlpha" operator="out"/>
<feColorMatrix type="matrix" values="0 0 0 0 0 0 0 0 0 0 0 0 0 0 0 0 0 0 0.25 0"/>
<feBlend mode="normal" in2="BackgroundImageFix" result="effect1_dropShadow_719_37"/>
<feBlend mode="normal" in="SourceGraphic" in2="effect1_dropShadow_719_37" result="shape"/>
</filter>
<clipPath id="clip0_719_37">
<rect width="160" height="160" fill="white"/>
</clipPath>
</defs>
</svg>
